<svg xmlns="http://www.w3.org/2000/svg" xmlns:xlink="http://www.w3.org/1999/xlink" width="199" zoomAndPan="magnify" viewBox="0 0 149.25 32.249999" height="43" preserveAspectRatio="xMidYMid meet" version="1.0"><defs><clipPath id="3fa838ade6"><path d="M 67.242188 14 L 75 14 L 75 20.523438 L 67.242188 20.523438 Z M 67.242188 14 " clip-rule="nonzero"/></clipPath><clipPath id="28efd1fa21"><path d="M 74 10.996094 L 81.167969 10.996094 L 81.167969 18 L 74 18 Z M 74 10.996094 " clip-rule="nonzero"/></clipPath></defs><g clip-path="url(#3fa838ade6)"><path fill="#0652e9" d="M 71.96875 18.617188 L 71.96875 19.472656 L 68.101562 17.675781 L 68.101562 16.984375 L 71.96875 15.1875 L 71.96875 16.042969 L 69.042969 17.320312 L 69.042969 17.335938 Z M 74.261719 14.238281 L 67.796875 14.238281 C 67.492188 14.238281 67.246094 14.484375 67.246094 14.792969 L 67.246094 19.867188 C 67.246094 20.171875 67.492188 20.421875 67.796875 20.421875 L 72.46875 20.421875 L 74.261719 14.238281 " fill-opacity="1" fill-rule="nonzero"/></g><g clip-path="url(#28efd1fa21)"><path fill="#62e1e9" d="M 80.414062 14.457031 L 76.550781 16.230469 L 76.550781 15.375 L 79.539062 14.09375 L 79.539062 14.078125 L 76.550781 12.796875 L 76.550781 11.945312 L 80.414062 13.71875 Z M 76.058594 10.996094 L 74.261719 17.179688 L 80.71875 17.179688 C 81.023438 17.179688 81.273438 16.929688 81.273438 16.625 L 81.273438 11.546875 C 81.273438 11.242188 81.023438 10.996094 80.71875 10.996094 L 76.058594 10.996094 " fill-opacity="1" fill-rule="nonzero"/></g></svg>