<svg xmlns="http://www.w3.org/2000/svg" xmlns:xlink="http://www.w3.org/1999/xlink" width="500" zoomAndPan="magnify" viewBox="0 0 375 374.999991" height="500" preserveAspectRatio="xMidYMid meet" version="1.0"><defs><clipPath id="755e9967c1"><path d="M 112.5 125 L 262.5 125 L 262.5 250.59375 L 112.5 250.59375 Z M 112.5 125 " clip-rule="nonzero"/></clipPath><clipPath id="a9b4b9715c"><path d="M 92 86 L 244 86 L 244 172 L 92 172 Z M 92 86 " clip-rule="nonzero"/></clipPath><clipPath id="2a87fd3d79"><path d="M 79.277344 116.398438 L 217.703125 58.621094 L 246.011719 126.449219 L 107.585938 184.226562 Z M 79.277344 116.398438 " clip-rule="nonzero"/></clipPath><clipPath id="8729660bc7"><path d="M 79.277344 116.398438 L 217.703125 58.621094 L 246.011719 126.449219 L 107.585938 184.226562 Z M 79.277344 116.398438 " clip-rule="nonzero"/></clipPath><clipPath id="de2e51d743"><path d="M 79.277344 116.398438 L 217.703125 58.621094 L 246.011719 126.449219 L 107.585938 184.226562 Z M 79.277344 116.398438 " clip-rule="nonzero"/></clipPath></defs><g clip-path="url(#755e9967c1)"><path fill="#000000" d="M 205.601562 139.550781 C 206.378906 137.847656 207.511719 136.679688 209.304688 136.289062 C 209.632812 136.230469 209.960938 136.199219 210.289062 136.199219 C 213.753906 136.199219 217.21875 136.320312 220.6875 136.171875 C 223.941406 136.019531 226.359375 138.625 226.359375 141.882812 C 226.359375 146.941406 226.359375 151.996094 226.359375 157.050781 C 226.359375 157.621094 226.511719 158.039062 226.957031 158.425781 C 234.007812 164.621094 241.027344 170.839844 248.046875 177.0625 C 252.109375 180.652344 256.199219 184.242188 260.261719 187.863281 C 262.027344 189.417969 262.414062 191.484375 261.816406 193.667969 C 261.277344 195.671875 259.964844 197.015625 257.875 197.4375 C 257.246094 197.554688 256.589844 197.523438 255.933594 197.523438 C 253.929688 197.523438 251.960938 197.523438 249.839844 197.523438 C 249.839844 198.484375 249.839844 199.378906 249.839844 200.277344 C 249.839844 206.351562 249.839844 212.421875 249.839844 218.496094 C 249.839844 220.050781 249.390625 220.5 247.808594 220.5 C 246.972656 220.5 246.136719 220.5 245.269531 220.5 C 244.34375 220.5 243.835938 220.082031 243.683594 219.152344 C 243.65625 218.945312 243.625 218.734375 243.625 218.496094 C 243.625 211.285156 243.625 204.105469 243.625 196.898438 C 243.625 194.894531 244.164062 193.15625 245.804688 191.871094 C 246.730469 191.152344 247.808594 190.855469 248.972656 190.855469 C 250.316406 190.855469 251.660156 190.855469 253.003906 190.855469 C 253.242188 190.855469 253.453125 190.824219 253.839844 190.824219 C 252.46875 189.597656 251.210938 188.492188 249.957031 187.382812 C 241.386719 179.816406 232.84375 172.246094 224.269531 164.679688 C 223.523438 164.019531 222.746094 163.363281 222 162.675781 C 220.6875 161.507812 220.089844 159.984375 220.089844 158.246094 C 220.089844 153.25 220.089844 148.226562 220.089844 143.230469 C 220.089844 143.140625 220.058594 143.050781 220.058594 142.871094 C 219.820312 142.839844 219.550781 142.78125 219.3125 142.78125 C 216.863281 142.78125 214.414062 142.839844 211.964844 142.8125 C 211.394531 142.8125 211.1875 142.992188 211.039062 143.5 C 210.261719 146.042969 207.871094 147.597656 205.390625 147.058594 C 204.496094 146.851562 203.570312 146.371094 202.882812 145.742188 C 197.863281 141.375 192.90625 136.976562 187.949219 132.582031 C 187.46875 132.160156 187.203125 132.222656 186.753906 132.609375 C 178.660156 139.761719 170.5625 146.910156 162.46875 154.058594 C 154.3125 161.269531 146.160156 168.449219 138.035156 175.65625 C 132.417969 180.625 126.773438 185.589844 121.160156 190.554688 C 121.097656 190.613281 121.039062 190.675781 120.890625 190.824219 C 121.1875 190.855469 121.367188 190.882812 121.578125 190.882812 C 122.859375 190.882812 124.117188 190.914062 125.398438 190.882812 C 128.984375 190.765625 131.046875 193.457031 131.046875 196.539062 C 131.046875 203.925781 131.046875 211.316406 131.046875 218.734375 C 131.046875 228.667969 131.046875 238.566406 131.046875 248.5 C 131.046875 248.800781 131.046875 249.128906 130.984375 249.425781 C 130.835938 250.203125 130.359375 250.59375 129.582031 250.59375 C 128.597656 250.59375 127.609375 250.59375 126.625 250.59375 C 125.429688 250.59375 124.953125 250.113281 124.953125 248.949219 C 124.953125 245.539062 124.953125 242.15625 124.953125 238.746094 C 124.953125 225.257812 124.953125 211.765625 124.953125 198.273438 C 124.953125 198.0625 124.921875 197.855469 124.921875 197.523438 C 124.144531 197.523438 123.429688 197.523438 122.683594 197.523438 C 121.097656 197.523438 119.515625 197.523438 117.933594 197.523438 C 115.183594 197.496094 112.972656 195.460938 112.765625 192.710938 C 112.585938 190.703125 113.183594 189 114.707031 187.683594 C 118.648438 184.214844 122.621094 180.714844 126.566406 177.242188 C 131.972656 172.457031 137.378906 167.671875 142.785156 162.914062 C 149.535156 156.929688 156.316406 150.976562 163.066406 144.996094 C 168.113281 140.507812 173.132812 136.050781 178.152344 131.625 C 180.152344 129.859375 182.152344 128.09375 184.15625 126.328125 C 186.097656 124.652344 188.605469 124.59375 190.515625 126.269531 C 195.324219 130.488281 200.136719 134.734375 204.914062 138.953125 C 205.152344 139.132812 205.332031 139.3125 205.601562 139.550781 Z M 205.601562 139.550781 " fill-opacity="1" fill-rule="nonzero"/></g><g clip-path="url(#a9b4b9715c)"><g clip-path="url(#2a87fd3d79)"><g clip-path="url(#8729660bc7)"><g clip-path="url(#de2e51d743)"><path fill="#000000" d="M 236.109375 109.441406 C 239.519531 112.425781 243.222656 121.253906 243.222656 121.253906 C 243.070312 121.496094 242.902344 121.703125 242.730469 121.890625 L 239.035156 116.824219 C 239.035156 116.824219 240.210938 120.71875 241.21875 122.851562 C 238.972656 124.804688 236.882812 124.097656 236.882812 124.097656 C 233.257812 117.417969 232.382812 113.179688 232.203125 110.976562 C 231.539062 110.6875 230.992188 110.175781 230.679688 109.464844 C 230.160156 108.316406 230.445312 106.988281 231.285156 106.152344 L 225.800781 93.484375 L 212.046875 108.234375 C 211.011719 109.347656 209.175781 109.0625 208.535156 107.671875 L 206.234375 102.722656 C 205.929688 102.089844 205.355469 101.644531 204.679688 101.519531 C 170.816406 95.097656 149.621094 105.523438 137.824219 115.382812 C 124.972656 126.128906 120.257812 138.296875 120.0625 138.808594 L 120.054688 138.832031 C 119.847656 139.363281 119.871094 139.9375 120.085938 140.453125 L 122.519531 146.050781 C 123.132812 147.472656 122.113281 149.046875 120.554688 149.054688 L 94.941406 149.214844 C 93.050781 149.222656 92.074219 146.976562 93.355469 145.605469 L 146.832031 88.472656 C 147.242188 88.050781 147.78125 87.804688 148.363281 87.796875 L 227.347656 86.539062 C 229.246094 86.507812 230.246094 88.761719 228.957031 90.15625 L 227.121094 92.113281 L 232.847656 105.363281 C 234.164062 105.105469 235.519531 105.789062 236.085938 107.054688 C 236.453125 107.835938 236.425781 108.707031 236.109375 109.441406 Z M 123.945312 140.304688 C 123.878906 140.429688 123.871094 140.589844 123.933594 140.742188 L 136.679688 171.285156 C 136.832031 171.648438 137.328125 171.714844 137.5625 171.382812 C 141.222656 166.328125 164.59375 137.1875 217.027344 138.390625 C 217.398438 138.390625 217.65625 138.03125 217.519531 137.699219 L 204.160156 105.695312 C 204.097656 105.542969 203.96875 105.421875 203.800781 105.394531 C 199.734375 104.480469 147.832031 93.808594 123.945312 140.304688 Z M 123.945312 140.304688 " fill-opacity="1" fill-rule="nonzero"/></g></g></g></g></svg>