<svg xmlns="http://www.w3.org/2000/svg" xmlns:xlink="http://www.w3.org/1999/xlink" width="250" zoomAndPan="magnify" viewBox="0 0 187.5 74.999997" height="100" preserveAspectRatio="xMidYMid meet" version="1.0"><defs><g/><clipPath id="aa23545ac1"><path d="M 134.023438 9.609375 L 163.398438 9.609375 L 163.398438 34.269531 L 134.023438 34.269531 Z M 134.023438 9.609375 " clip-rule="nonzero"/></clipPath><clipPath id="eaca9d57c0"><path d="M 20 28 L 50 28 L 50 45 L 20 45 Z M 20 28 " clip-rule="nonzero"/></clipPath><clipPath id="9a79d91f5c"><path d="M 17.414062 34.085938 L 44.523438 22.773438 L 49.96875 35.824219 L 22.863281 47.136719 Z M 17.414062 34.085938 " clip-rule="nonzero"/></clipPath><clipPath id="039fdbc61d"><path d="M 17.414062 34.085938 L 44.523438 22.773438 L 49.96875 35.824219 L 22.863281 47.136719 Z M 17.414062 34.085938 " clip-rule="nonzero"/></clipPath></defs><g fill="#ffffff" fill-opacity="1"><g transform="translate(30.313196, 55.379371)"><g><path d="M 1.113281 -5.46875 C 1.113281 -2.128906 3.308594 0.523438 8.710938 0.523438 C 13.457031 0.523438 15.652344 -1.210938 15.652344 -4.585938 C 15.652344 -7.105469 14.539062 -8.972656 10.476562 -9.59375 L 6.941406 -10.117188 C 5.171875 -10.378906 4.683594 -11.199219 4.683594 -12.179688 C 4.683594 -13.492188 5.699219 -14.503906 8.21875 -14.503906 C 10.738281 -14.503906 11.953125 -13.226562 12.113281 -11.722656 L 15.390625 -11.722656 C 15.160156 -14.800781 12.539062 -16.929688 8.316406 -16.929688 C 4.027344 -16.929688 1.507812 -15.027344 1.507812 -11.886719 C 1.507812 -9.398438 3.046875 -7.824219 5.894531 -7.398438 L 9.953125 -6.777344 C 11.6875 -6.515625 12.441406 -5.761719 12.441406 -4.421875 C 12.441406 -2.914062 11.722656 -1.898438 8.808594 -1.898438 C 5.632812 -1.898438 4.289062 -3.472656 4.160156 -5.46875 Z M 1.113281 -5.46875 "/></g></g></g><g fill="#ffffff" fill-opacity="1"><g transform="translate(46.553915, 55.379371)"><g><path d="M 8.613281 0 L 11.851562 0 L 11.851562 -2.621094 L 6.941406 -2.621094 L 6.941406 -13.851562 L 12.179688 -13.851562 L 12.179688 -16.371094 L 6.941406 -16.371094 L 6.941406 -20.070312 L 5.304688 -20.070312 L 3.960938 -16.730469 L 0.554688 -15.554688 L 0.554688 -13.851562 L 3.667969 -13.851562 L 3.667969 -4.8125 C 3.667969 -1.539062 4.648438 0 8.613281 0 Z M 8.613281 0 "/></g></g></g><g fill="#ffffff" fill-opacity="1"><g transform="translate(58.996402, 55.379371)"><g><path d="M 13.851562 -16.371094 L 13.851562 -9.460938 C 13.851562 -4.585938 11.984375 -2.195312 9.070312 -2.195312 C 6.875 -2.195312 5.238281 -3.011719 5.238281 -6.449219 L 5.238281 -16.371094 L 1.964844 -16.371094 L 1.964844 -6.15625 C 1.964844 -1.867188 3.699219 0.523438 8.054688 0.523438 C 11.132812 0.523438 12.902344 -1.179688 13.851562 -3.570312 L 13.851562 0 L 17.125 0 L 17.125 -16.371094 Z M 13.851562 -16.371094 "/></g></g></g><g fill="#ffffff" fill-opacity="1"><g transform="translate(77.758363, 55.379371)"><g><path d="M 18.828125 -5.632812 C 18.828125 -8.675781 17.453125 -9.625 15.257812 -10.347656 C 17.679688 -10.96875 19.515625 -12.902344 19.515625 -15.878906 C 19.515625 -19.480469 17.09375 -21.773438 12.539062 -21.773438 L 2.128906 -21.773438 L 2.128906 0 L 5.5 0 L 5.5 -9.429688 L 11 -9.429688 C 13.816406 -9.429688 15.554688 -8.285156 15.554688 -5.140625 L 15.554688 -3.4375 C 15.554688 -1.667969 15.78125 -0.554688 15.980469 0 L 19.285156 0 C 19.121094 -0.621094 18.828125 -1.800781 18.828125 -3.570312 Z M 12.3125 -11.917969 L 5.5 -11.917969 L 5.5 -19.058594 L 12.179688 -19.058594 C 14.832031 -19.058594 15.980469 -17.78125 15.980469 -15.652344 C 15.980469 -13.328125 15.09375 -11.917969 12.3125 -11.917969 Z M 12.3125 -11.917969 "/></g></g></g><g fill="#ffffff" fill-opacity="1"><g transform="translate(98.583156, 55.379371)"><g><path d="M 5.5 -2.71875 L 5.5 -9.824219 L 17.582031 -9.824219 L 17.582031 -12.476562 L 5.5 -12.476562 L 5.5 -19.058594 L 18.566406 -19.058594 L 18.566406 -21.773438 L 2.128906 -21.773438 L 2.128906 0 L 18.664062 0 L 18.664062 -2.71875 Z M 5.5 -2.71875 "/></g></g></g><g fill="#ffffff" fill-opacity="1"><g transform="translate(118.556624, 55.379371)"><g><path d="M 17.910156 -21.773438 L 17.910156 -2.128906 C 17.417969 -3.273438 16.832031 -4.617188 16.371094 -5.5 L 7.957031 -21.773438 L 2.128906 -21.773438 L 2.128906 0 L 5.5 0 L 5.5 -19.644531 C 5.894531 -18.597656 6.449219 -17.453125 7.074219 -16.207031 L 15.453125 0 L 21.28125 0 L 21.28125 -21.773438 Z M 17.910156 -21.773438 "/></g></g></g><g fill="#ffffff" fill-opacity="1"><g transform="translate(141.31328, 55.379371)"><g><path d="M 19.613281 -21.773438 L 1.144531 -21.773438 L 1.144531 -19.058594 L 8.710938 -19.058594 L 8.710938 0 L 12.082031 0 L 12.082031 -19.058594 L 19.613281 -19.058594 Z M 19.613281 -21.773438 "/></g></g></g><g clip-path="url(#aa23545ac1)"><path fill="#ffffff" d="M 152.164062 12.519531 C 152.316406 12.1875 152.535156 11.960938 152.886719 11.886719 C 152.949219 11.875 153.011719 11.867188 153.078125 11.867188 C 153.753906 11.867188 154.425781 11.890625 155.101562 11.863281 C 155.738281 11.832031 156.207031 12.339844 156.207031 12.972656 C 156.207031 13.957031 156.207031 14.941406 156.207031 15.925781 C 156.207031 16.035156 156.238281 16.117188 156.324219 16.191406 C 157.699219 17.398438 159.066406 18.605469 160.433594 19.816406 C 161.222656 20.515625 162.023438 21.214844 162.8125 21.917969 C 163.15625 22.222656 163.230469 22.621094 163.117188 23.046875 C 163.011719 23.4375 162.753906 23.699219 162.347656 23.78125 C 162.226562 23.804688 162.097656 23.796875 161.96875 23.796875 C 161.578125 23.796875 161.195312 23.796875 160.78125 23.796875 C 160.78125 23.984375 160.78125 24.160156 160.78125 24.332031 C 160.78125 25.515625 160.78125 26.695312 160.78125 27.878906 C 160.78125 28.179688 160.695312 28.265625 160.386719 28.265625 C 160.222656 28.265625 160.0625 28.265625 159.890625 28.265625 C 159.710938 28.265625 159.613281 28.1875 159.582031 28.003906 C 159.578125 27.964844 159.570312 27.925781 159.570312 27.878906 C 159.570312 26.476562 159.570312 25.078125 159.570312 23.675781 C 159.570312 23.285156 159.675781 22.949219 159.996094 22.699219 C 160.175781 22.558594 160.386719 22.5 160.613281 22.5 C 160.875 22.5 161.136719 22.5 161.398438 22.5 C 161.445312 22.5 161.488281 22.496094 161.5625 22.496094 C 161.292969 22.257812 161.050781 22.039062 160.804688 21.824219 C 159.136719 20.351562 157.472656 18.878906 155.800781 17.410156 C 155.65625 17.28125 155.503906 17.152344 155.359375 17.019531 C 155.101562 16.792969 154.984375 16.496094 154.984375 16.15625 C 154.984375 15.183594 154.984375 14.207031 154.984375 13.234375 C 154.984375 13.21875 154.980469 13.199219 154.980469 13.164062 C 154.933594 13.160156 154.882812 13.148438 154.835938 13.148438 C 154.359375 13.148438 153.878906 13.160156 153.402344 13.152344 C 153.292969 13.152344 153.25 13.1875 153.222656 13.289062 C 153.070312 13.78125 152.605469 14.085938 152.121094 13.980469 C 151.949219 13.941406 151.769531 13.847656 151.632812 13.722656 C 150.65625 12.875 149.691406 12.019531 148.722656 11.164062 C 148.632812 11.082031 148.578125 11.09375 148.492188 11.167969 C 146.914062 12.5625 145.335938 13.953125 143.761719 15.34375 C 142.171875 16.746094 140.582031 18.140625 139 19.542969 C 137.90625 20.511719 136.804688 21.476562 135.710938 22.441406 C 135.699219 22.453125 135.6875 22.464844 135.660156 22.496094 C 135.71875 22.5 135.753906 22.507812 135.792969 22.507812 C 136.042969 22.507812 136.289062 22.511719 136.539062 22.507812 C 137.238281 22.484375 137.636719 23.007812 137.636719 23.605469 C 137.636719 25.042969 137.636719 26.480469 137.636719 27.925781 C 137.636719 29.855469 137.636719 31.78125 137.636719 33.714844 C 137.636719 33.773438 137.636719 33.835938 137.625 33.894531 C 137.597656 34.046875 137.503906 34.121094 137.351562 34.121094 C 137.160156 34.121094 136.96875 34.121094 136.777344 34.121094 C 136.542969 34.121094 136.449219 34.027344 136.449219 33.800781 C 136.449219 33.136719 136.449219 32.480469 136.449219 31.816406 C 136.449219 29.191406 136.449219 26.566406 136.449219 23.945312 C 136.449219 23.902344 136.445312 23.863281 136.445312 23.796875 C 136.292969 23.796875 136.15625 23.796875 136.007812 23.796875 C 135.699219 23.796875 135.390625 23.796875 135.082031 23.796875 C 134.546875 23.792969 134.117188 23.394531 134.078125 22.859375 C 134.042969 22.472656 134.160156 22.140625 134.453125 21.882812 C 135.222656 21.207031 135.996094 20.527344 136.765625 19.851562 C 137.820312 18.921875 138.871094 17.988281 139.925781 17.066406 C 141.242188 15.902344 142.5625 14.742188 143.875 13.578125 C 144.859375 12.707031 145.835938 11.839844 146.816406 10.976562 C 147.207031 10.632812 147.59375 10.292969 147.984375 9.949219 C 148.363281 9.621094 148.851562 9.609375 149.226562 9.9375 C 150.160156 10.757812 151.097656 11.582031 152.03125 12.402344 C 152.078125 12.4375 152.109375 12.472656 152.164062 12.519531 Z M 152.164062 12.519531 " fill-opacity="1" fill-rule="nonzero"/></g><g clip-path="url(#eaca9d57c0)"><g clip-path="url(#9a79d91f5c)"><g clip-path="url(#039fdbc61d)"><path fill="#ffffff" d="M 47.96875 32.730469 C 48.632812 33.3125 49.355469 35.03125 49.355469 35.03125 C 49.324219 35.078125 49.292969 35.117188 49.257812 35.15625 L 48.539062 34.167969 C 48.539062 34.167969 48.769531 34.925781 48.964844 35.34375 C 48.527344 35.722656 48.121094 35.585938 48.121094 35.585938 C 47.414062 34.285156 47.246094 33.457031 47.210938 33.027344 C 47.078125 32.972656 46.972656 32.871094 46.910156 32.734375 C 46.8125 32.511719 46.867188 32.253906 47.03125 32.089844 L 45.960938 29.621094 L 43.28125 32.496094 C 43.082031 32.710938 42.722656 32.65625 42.597656 32.386719 L 42.148438 31.421875 C 42.089844 31.296875 41.980469 31.210938 41.847656 31.1875 C 35.25 29.9375 31.121094 31.96875 28.824219 33.886719 C 26.320312 35.980469 25.402344 38.351562 25.363281 38.449219 L 25.363281 38.457031 C 25.320312 38.558594 25.328125 38.671875 25.367188 38.773438 L 25.84375 39.863281 C 25.960938 40.136719 25.761719 40.445312 25.460938 40.445312 L 20.46875 40.476562 C 20.101562 40.480469 19.910156 40.042969 20.160156 39.773438 L 30.578125 28.644531 C 30.65625 28.5625 30.761719 28.515625 30.875 28.511719 L 46.261719 28.269531 C 46.632812 28.261719 46.828125 28.703125 46.578125 28.972656 L 46.21875 29.355469 L 47.335938 31.9375 C 47.589844 31.886719 47.855469 32.019531 47.964844 32.265625 C 48.035156 32.417969 48.03125 32.585938 47.96875 32.730469 Z M 26.121094 38.742188 C 26.105469 38.765625 26.105469 38.796875 26.117188 38.828125 L 28.601562 44.777344 C 28.628906 44.847656 28.726562 44.863281 28.773438 44.796875 C 29.484375 43.8125 34.039062 38.136719 44.253906 38.371094 C 44.324219 38.371094 44.375 38.300781 44.347656 38.234375 L 41.746094 32 C 41.734375 31.972656 41.707031 31.945312 41.675781 31.941406 C 40.882812 31.761719 30.773438 29.683594 26.121094 38.742188 Z M 26.121094 38.742188 " fill-opacity="1" fill-rule="nonzero"/></g></g></g></svg>