<svg xmlns="http://www.w3.org/2000/svg" xmlns:xlink="http://www.w3.org/1999/xlink" width="500" zoomAndPan="magnify" viewBox="0 0 375 374.999991" height="500" preserveAspectRatio="xMidYMid meet" version="1.0"><defs><clipPath id="0be2976e9f"><path d="M 112.5 125 L 262.5 125 L 262.5 250.59375 L 112.5 250.59375 Z M 112.5 125 " clip-rule="nonzero"/></clipPath><clipPath id="ee036256f4"><path d="M 93 89 L 244 89 L 244 175 L 93 175 Z M 93 89 " clip-rule="nonzero"/></clipPath><clipPath id="b354eb7a42"><path d="M 79.816406 119.570312 L 218.242188 61.789062 L 246.554688 129.617188 L 108.128906 187.398438 Z M 79.816406 119.570312 " clip-rule="nonzero"/></clipPath><clipPath id="9bf2c2a39a"><path d="M 79.816406 119.570312 L 218.242188 61.789062 L 246.554688 129.617188 L 108.128906 187.398438 Z M 79.816406 119.570312 " clip-rule="nonzero"/></clipPath></defs><g clip-path="url(#0be2976e9f)"><path fill="#ffffff" d="M 205.601562 139.527344 C 206.378906 137.824219 207.511719 136.660156 209.304688 136.273438 C 209.632812 136.214844 209.960938 136.183594 210.289062 136.183594 C 213.753906 136.183594 217.21875 136.304688 220.6875 136.152344 C 223.941406 136.003906 226.359375 138.601562 226.359375 141.859375 C 226.359375 146.90625 226.359375 151.953125 226.359375 157.003906 C 226.359375 157.570312 226.511719 157.988281 226.957031 158.375 C 234.007812 164.558594 241.027344 170.773438 248.046875 176.984375 C 252.109375 180.570312 256.199219 184.15625 260.261719 187.769531 C 262.027344 189.320312 262.414062 191.382812 261.816406 193.5625 C 261.277344 195.566406 259.964844 196.910156 257.875 197.328125 C 257.246094 197.445312 256.589844 197.417969 255.933594 197.417969 C 253.929688 197.417969 251.960938 197.417969 249.839844 197.417969 C 249.839844 198.371094 249.839844 199.269531 249.839844 200.164062 C 249.839844 206.226562 249.839844 212.292969 249.839844 218.355469 C 249.839844 219.910156 249.390625 220.355469 247.808594 220.355469 C 246.972656 220.355469 246.136719 220.355469 245.269531 220.355469 C 244.34375 220.355469 243.835938 219.9375 243.683594 219.011719 C 243.65625 218.804688 243.625 218.59375 243.625 218.355469 C 243.625 211.15625 243.625 203.988281 243.625 196.789062 C 243.625 194.789062 244.164062 193.054688 245.804688 191.769531 C 246.730469 191.054688 247.808594 190.753906 248.972656 190.753906 C 250.316406 190.753906 251.660156 190.753906 253.003906 190.753906 C 253.242188 190.753906 253.453125 190.726562 253.839844 190.726562 C 252.46875 189.5 251.210938 188.394531 249.957031 187.289062 C 241.386719 179.734375 232.84375 172.175781 224.269531 164.621094 C 223.523438 163.960938 222.746094 163.304688 222 162.617188 C 220.6875 161.453125 220.089844 159.929688 220.089844 158.199219 C 220.089844 153.210938 220.089844 148.191406 220.089844 143.203125 C 220.089844 143.113281 220.058594 143.023438 220.058594 142.84375 C 219.820312 142.8125 219.550781 142.753906 219.3125 142.753906 C 216.863281 142.753906 214.414062 142.8125 211.964844 142.785156 C 211.394531 142.785156 211.1875 142.964844 211.039062 143.472656 C 210.261719 146.011719 207.871094 147.5625 205.390625 147.027344 C 204.496094 146.816406 203.570312 146.339844 202.882812 145.710938 C 197.863281 141.351562 192.90625 136.960938 187.949219 132.570312 C 187.46875 132.152344 187.203125 132.210938 186.753906 132.597656 C 178.660156 139.738281 170.5625 146.875 162.46875 154.015625 C 154.3125 161.214844 146.160156 168.382812 138.035156 175.582031 C 132.417969 180.539062 126.773438 185.5 121.160156 190.457031 C 121.097656 190.515625 121.039062 190.578125 120.890625 190.726562 C 121.1875 190.753906 121.367188 190.785156 121.578125 190.785156 C 122.859375 190.785156 124.117188 190.816406 125.398438 190.785156 C 128.984375 190.667969 131.046875 193.355469 131.046875 196.429688 C 131.046875 203.808594 131.046875 211.1875 131.046875 218.59375 C 131.046875 228.511719 131.046875 238.398438 131.046875 248.316406 C 131.046875 248.613281 131.046875 248.941406 130.984375 249.242188 C 130.835938 250.019531 130.359375 250.40625 129.582031 250.40625 C 128.597656 250.40625 127.609375 250.40625 126.625 250.40625 C 125.429688 250.40625 124.953125 249.929688 124.953125 248.761719 C 124.953125 245.359375 124.953125 241.984375 124.953125 238.578125 C 124.953125 225.105469 124.953125 211.636719 124.953125 198.164062 C 124.953125 197.953125 124.921875 197.746094 124.921875 197.417969 C 124.144531 197.417969 123.429688 197.417969 122.683594 197.417969 C 121.097656 197.417969 119.515625 197.417969 117.933594 197.417969 C 115.183594 197.386719 112.972656 195.355469 112.765625 192.609375 C 112.585938 190.605469 113.183594 188.902344 114.707031 187.589844 C 118.648438 184.125 122.621094 180.628906 126.566406 177.164062 C 131.972656 172.386719 137.378906 167.605469 142.785156 162.855469 C 149.535156 156.882812 156.316406 150.9375 163.066406 144.964844 C 168.113281 140.484375 173.132812 136.035156 178.152344 131.613281 C 180.152344 129.851562 182.152344 128.089844 184.15625 126.328125 C 186.097656 124.652344 188.605469 124.59375 190.515625 126.265625 C 195.324219 130.476562 200.136719 134.71875 204.914062 138.929688 C 205.152344 139.109375 205.332031 139.289062 205.601562 139.527344 Z M 205.601562 139.527344 " fill-opacity="1" fill-rule="nonzero"/></g><g clip-path="url(#ee036256f4)"><g clip-path="url(#b354eb7a42)"><g clip-path="url(#9bf2c2a39a)"><path fill="#ffffff" d="M 236.648438 112.613281 C 240.058594 115.597656 243.765625 124.425781 243.765625 124.425781 C 243.609375 124.664062 243.441406 124.871094 243.269531 125.0625 L 239.574219 119.992188 C 239.574219 119.992188 240.75 123.890625 241.757812 126.023438 C 239.511719 127.976562 237.421875 127.265625 237.421875 127.265625 C 233.796875 120.589844 232.925781 116.351562 232.746094 114.144531 C 232.078125 113.855469 231.53125 113.34375 231.21875 112.636719 C 230.699219 111.488281 230.984375 110.160156 231.824219 109.320312 L 226.339844 96.652344 L 212.585938 111.402344 C 211.550781 112.519531 209.714844 112.230469 209.074219 110.839844 L 206.777344 105.890625 C 206.472656 105.257812 205.898438 104.816406 205.21875 104.6875 C 171.355469 98.269531 150.160156 108.695312 138.363281 118.554688 C 125.511719 129.300781 120.800781 141.464844 120.601562 141.976562 L 120.59375 142 C 120.386719 142.535156 120.414062 143.109375 120.628906 143.625 L 123.0625 149.21875 C 123.671875 150.640625 122.652344 152.21875 121.097656 152.222656 L 95.480469 152.386719 C 93.589844 152.394531 92.617188 150.148438 93.894531 148.777344 L 147.375 91.644531 C 147.78125 91.21875 148.324219 90.972656 148.90625 90.964844 L 227.886719 89.707031 C 229.785156 89.675781 230.785156 91.929688 229.496094 93.328125 L 227.660156 95.28125 L 233.386719 108.535156 C 234.703125 108.277344 236.058594 108.957031 236.628906 110.222656 C 236.992188 111.007812 236.964844 111.875 236.648438 112.613281 Z M 124.484375 143.476562 C 124.421875 143.601562 124.410156 143.761719 124.472656 143.910156 L 137.21875 174.453125 C 137.375 174.820312 137.867188 174.886719 138.101562 174.554688 C 141.761719 169.496094 165.132812 140.355469 217.566406 141.5625 C 217.9375 141.5625 218.199219 141.199219 218.058594 140.867188 L 204.699219 108.863281 C 204.636719 108.714844 204.507812 108.59375 204.34375 108.566406 C 200.273438 107.648438 148.371094 96.980469 124.484375 143.476562 Z M 124.484375 143.476562 " fill-opacity="1" fill-rule="nonzero"/></g></g></g></svg>